<svg id="visual" viewBox="0 0 900 600" width="900" height="600" xmlns="http://www.w3.org/2000/svg" xmlns:xlink="http://www.w3.org/1999/xlink" version="1.1"><rect x="0" y="0" width="900" height="600" fill="#001220"></rect><defs><linearGradient id="grad1_0" x1="33.3%" y1="100%" x2="100%" y2="0%"><stop offset="20%" stop-color="#2ebcd4" stop-opacity="1"></stop><stop offset="80%" stop-color="#2ebcd4" stop-opacity="1"></stop></linearGradient></defs><defs><linearGradient id="grad1_1" x1="33.3%" y1="100%" x2="100%" y2="0%"><stop offset="20%" stop-color="#2ebcd4" stop-opacity="1"></stop><stop offset="80%" stop-color="#2496b1" stop-opacity="1"></stop></linearGradient></defs><defs><linearGradient id="grad1_2" x1="33.3%" y1="100%" x2="100%" y2="0%"><stop offset="20%" stop-color="#1d718c" stop-opacity="1"></stop><stop offset="80%" stop-color="#2496b1" stop-opacity="1"></stop></linearGradient></defs><defs><linearGradient id="grad1_3" x1="33.3%" y1="100%" x2="100%" y2="0%"><stop offset="20%" stop-color="#1d718c" stop-opacity="1"></stop><stop offset="80%" stop-color="#164f67" stop-opacity="1"></stop></linearGradient></defs><defs><linearGradient id="grad1_4" x1="33.3%" y1="100%" x2="100%" y2="0%"><stop offset="20%" stop-color="#0d2f42" stop-opacity="1"></stop><stop offset="80%" stop-color="#164f67" stop-opacity="1"></stop></linearGradient></defs><defs><linearGradient id="grad1_5" x1="33.3%" y1="100%" x2="100%" y2="0%"><stop offset="20%" stop-color="#0d2f42" stop-opacity="1"></stop><stop offset="80%" stop-color="#001220" stop-opacity="1"></stop></linearGradient></defs><defs><linearGradient id="grad2_0" x1="0%" y1="100%" x2="66.7%" y2="0%"><stop offset="20%" stop-color="#2ebcd4" stop-opacity="1"></stop><stop offset="80%" stop-color="#2ebcd4" stop-opacity="1"></stop></linearGradient></defs><defs><linearGradient id="grad2_1" x1="0%" y1="100%" x2="66.7%" y2="0%"><stop offset="20%" stop-color="#2496b1" stop-opacity="1"></stop><stop offset="80%" stop-color="#2ebcd4" stop-opacity="1"></stop></linearGradient></defs><defs><linearGradient id="grad2_2" x1="0%" y1="100%" x2="66.7%" y2="0%"><stop offset="20%" stop-color="#2496b1" stop-opacity="1"></stop><stop offset="80%" stop-color="#1d718c" stop-opacity="1"></stop></linearGradient></defs><defs><linearGradient id="grad2_3" x1="0%" y1="100%" x2="66.7%" y2="0%"><stop offset="20%" stop-color="#164f67" stop-opacity="1"></stop><stop offset="80%" stop-color="#1d718c" stop-opacity="1"></stop></linearGradient></defs><defs><linearGradient id="grad2_4" x1="0%" y1="100%" x2="66.7%" y2="0%"><stop offset="20%" stop-color="#164f67" stop-opacity="1"></stop><stop offset="80%" stop-color="#0d2f42" stop-opacity="1"></stop></linearGradient></defs><defs><linearGradient id="grad2_5" x1="0%" y1="100%" x2="66.7%" y2="0%"><stop offset="20%" stop-color="#001220" stop-opacity="1"></stop><stop offset="80%" stop-color="#0d2f42" stop-opacity="1"></stop></linearGradient></defs><g transform="translate(900, 600)"><path d="M-432.7 0C-428.2 -28.7 -423.7 -57.4 -413.9 -82.3C-404.1 -107.3 -389 -128.5 -385.3 -159.6C-381.6 -190.7 -389.3 -231.7 -359.7 -240.4C-330.2 -249 -263.4 -225.3 -234.1 -234.1C-204.7 -242.8 -212.9 -284 -201.1 -301C-189.3 -318 -157.4 -310.7 -135.5 -327.1C-113.5 -343.4 -101.5 -383.5 -80.6 -405.1C-59.6 -426.6 -29.8 -429.6 0 -432.7L0 0Z" fill="#072031"></path><path d="M-360.6 0C-356.8 -23.9 -353.1 -47.8 -344.9 -68.6C-336.7 -89.4 -324.1 -107.1 -321 -133C-318 -158.9 -324.4 -193.1 -299.8 -200.3C-275.2 -207.5 -219.5 -187.8 -195 -195C-170.6 -202.3 -177.5 -236.7 -167.6 -250.8C-157.7 -265 -131.2 -258.9 -112.9 -272.5C-94.6 -286.2 -84.6 -319.6 -67.1 -337.6C-49.7 -355.5 -24.9 -358 0 -360.6L0 0Z" fill="#123e55"></path><path d="M-288.4 0C-285.5 -19.1 -282.5 -38.3 -275.9 -54.9C-269.4 -71.5 -259.3 -85.6 -256.8 -106.4C-254.4 -127.1 -259.5 -154.5 -239.8 -160.3C-220.1 -166 -175.6 -150.2 -156 -156C-136.5 -161.9 -142 -189.4 -134.1 -200.7C-126.2 -212 -104.9 -207.1 -90.3 -218C-75.7 -229 -67.7 -255.7 -53.7 -270C-39.8 -284.4 -19.9 -286.4 0 -288.4L0 0Z" fill="#1a5f7a"></path><path d="M-216.3 0C-214.1 -14.3 -211.8 -28.7 -206.9 -41.2C-202 -53.6 -194.5 -64.2 -192.6 -79.8C-190.8 -95.3 -194.6 -115.9 -179.9 -120.2C-165.1 -124.5 -131.7 -112.7 -117 -117C-102.4 -121.4 -106.5 -142 -100.6 -150.5C-94.6 -159 -78.7 -155.3 -67.7 -163.5C-56.8 -171.7 -50.7 -191.8 -40.3 -202.5C-29.8 -213.3 -14.9 -214.8 0 -216.3L0 0Z" fill="#21839f"></path><path d="M-144.2 0C-142.7 -9.6 -141.2 -19.1 -138 -27.4C-134.7 -35.8 -129.7 -42.8 -128.4 -53.2C-127.2 -63.6 -129.8 -77.2 -119.9 -80.1C-110.1 -83 -87.8 -75.1 -78 -78C-68.2 -80.9 -71 -94.7 -67 -100.3C-63.1 -106 -52.5 -103.6 -45.2 -109C-37.8 -114.5 -33.8 -127.8 -26.9 -135C-19.9 -142.2 -9.9 -143.2 0 -144.2L0 0Z" fill="#28a9c3"></path><path d="M-72.1 0C-71.4 -4.8 -70.6 -9.6 -69 -13.7C-67.3 -17.9 -64.8 -21.4 -64.2 -26.6C-63.6 -31.8 -64.9 -38.6 -60 -40.1C-55 -41.5 -43.9 -37.6 -39 -39C-34.1 -40.5 -35.5 -47.3 -33.5 -50.2C-31.5 -53 -26.2 -51.8 -22.6 -54.5C-18.9 -57.2 -16.9 -63.9 -13.4 -67.5C-9.9 -71.1 -5 -71.6 0 -72.1L0 0Z" fill="#2ebcd4"></path></g><g transform="translate(0, 0)"><path d="M432.7 0C411.3 26.3 389.9 52.5 372.7 74.1C355.5 95.7 342.4 112.6 346.5 143.5C350.5 174.4 371.7 219.2 359.7 240.4C347.8 261.5 302.8 259 279.3 279.3C255.9 299.6 254 342.6 228.3 341.7C202.7 340.9 153.2 296.2 127.8 308.6C102.4 321 101 390.6 83.7 420.8C66.4 451 33.2 441.8 0 432.7L0 0Z" fill="#072031"></path><path d="M360.6 0C342.7 21.9 324.9 43.8 310.6 61.8C296.2 79.8 285.3 93.9 288.7 119.6C292.1 145.3 309.7 182.7 299.8 200.3C289.8 218 252.3 215.9 232.8 232.8C213.2 249.6 211.7 285.5 190.3 284.8C168.9 284.1 127.7 246.8 106.5 257.1C85.3 267.5 84.2 325.5 69.7 350.6C55.3 375.8 27.7 368.2 0 360.6L0 0Z" fill="#123e55"></path><path d="M288.4 0C274.2 17.5 259.9 35 248.5 49.4C237 63.8 228.3 75.1 231 95.7C233.7 116.3 247.8 146.1 239.8 160.3C231.9 174.4 201.8 172.7 186.2 186.2C170.6 199.7 169.3 228.4 152.2 227.8C135.1 227.3 102.2 197.4 85.2 205.7C68.3 214 67.3 260.4 55.8 280.5C44.3 300.6 22.1 294.5 0 288.4L0 0Z" fill="#1a5f7a"></path><path d="M216.3 0C205.6 13.1 195 26.3 186.3 37.1C177.7 47.9 171.2 56.3 173.2 71.8C175.3 87.2 185.8 109.6 179.9 120.2C173.9 130.8 151.4 129.5 139.7 139.7C127.9 149.8 127 171.3 114.2 170.9C101.3 170.4 76.6 148.1 63.9 154.3C51.2 160.5 50.5 195.3 41.8 210.4C33.2 225.5 16.6 220.9 0 216.3L0 0Z" fill="#21839f"></path><path d="M144.2 0C137.1 8.8 130 17.5 124.2 24.7C118.5 31.9 114.1 37.5 115.5 47.8C116.8 58.1 123.9 73.1 119.9 80.1C115.9 87.2 100.9 86.3 93.1 93.1C85.3 99.9 84.7 114.2 76.1 113.9C67.6 113.6 51.1 98.7 42.6 102.9C34.1 107 33.7 130.2 27.9 140.3C22.1 150.3 11.1 147.3 0 144.2L0 0Z" fill="#28a9c3"></path><path d="M72.1 0C68.5 4.4 65 8.8 62.1 12.4C59.2 16 57.1 18.8 57.7 23.9C58.4 29.1 61.9 36.5 60 40.1C58 43.6 50.5 43.2 46.6 46.6C42.6 49.9 42.3 57.1 38.1 57C33.8 56.8 25.5 49.4 21.3 51.4C17.1 53.5 16.8 65.1 13.9 70.1C11.1 75.2 5.5 73.6 0 72.1L0 0Z" fill="#2ebcd4"></path></g></svg>