<?xml version="1.0" encoding="utf-8"?>
<!-- Generator: Adobe Illustrator 27.0.0, SVG Export Plug-In . SVG Version: 6.00 Build 0)  -->
<svg version="1.1" id="Layer_1" xmlns="http://www.w3.org/2000/svg" xmlns:xlink="http://www.w3.org/1999/xlink" x="0px" y="0px"
	 viewBox="0 0 1000 500" style="enable-background:new 0 0 1000 500;" xml:space="preserve">
<style type="text/css">
	.st0{fill:#46465A;}
	.st1{fill:#67C0D8;}
	.st2{fill:#00AED6;}
	.st3{fill:#2A2A3B;}
</style>
<polygon class="st0" points="181.82,342.95 181.82,475.96 806.05,395.1 806.05,24.34 225.22,148.82 "/>
<polygon class="st1" points="225.22,148.82 181.82,342.95 900.85,395.1 863,60.21 "/>
<polygon class="st2" points="225.22,148.82 125.55,192.98 181.82,342.95 "/>
<polygon class="st1" points="125.55,192.98 85.5,398.47 181.82,342.95 "/>
<polygon class="st3" points="656.99,433.71 619.99,374.73 695.93,380.24 "/>
<polygon class="st2" points="225.22,148.82 980.64,371.72 942.09,131.94 380.43,127.26 "/>
<polygon class="st0" points="656.99,433.71 818.27,212.22 955.1,427.04 "/>
<polygon class="st2" points="84.09,308.69 70.27,360.51 24.49,303.5 "/>
<polygon class="st2" points="64.22,254.27 84.09,282.77 97.91,254.27 "/>
<polygon class="st2" points="38.31,254.27 19.3,276.73 50.4,282.77 "/>
</svg>
